<svg xmlns="http://www.w3.org/2000/svg" xmlns:xlink="http://www.w3.org/1999/xlink" width="1152" zoomAndPan="magnify" viewBox="0 0 864 863.999991" height="1152" preserveAspectRatio="xMidYMid meet" version="1.0"><defs><g/><clipPath id="242b7d7a8b"><path d="M 380.382812 378.351562 L 623.558594 378.351562 L 623.558594 450.488281 L 380.382812 450.488281 Z M 380.382812 378.351562 " clip-rule="nonzero"/></clipPath><clipPath id="6f7aba0f03"><path d="M 562.738281 378.351562 L 380.382812 378.351562 L 380.382812 450.488281 L 562.738281 450.488281 L 623.523438 414.421875 Z M 562.738281 378.351562 " clip-rule="nonzero"/></clipPath></defs><rect x="-86.4" width="1036.8" fill="#ffffff" y="-86.399999" height="1036.79999" fill-opacity="1"/><rect x="-86.4" width="1036.8" fill="#ffffff" y="-86.399999" height="1036.79999" fill-opacity="1"/><g fill="#000000" fill-opacity="1"><g transform="translate(158.279174, 481.352703)"><g><path d="M 8.15625 -1.46875 L 10.921875 -1.46875 C 12.773438 -1.6875 15.304688 -2.53125 18.515625 -4 C 21.722656 -5.46875 25.226562 -8.238281 29.03125 -12.3125 C 32.84375 -16.394531 36.539062 -22.457031 40.125 -30.5 L 73.40625 -103.40625 L 90.203125 -140.59375 L 145.8125 -18.59375 C 148.207031 -13.476562 150.984375 -9.695312 154.140625 -7.25 C 157.296875 -4.8125 160.234375 -3.265625 162.953125 -2.609375 C 165.671875 -1.953125 167.570312 -1.570312 168.65625 -1.46875 L 169.46875 -1.46875 L 169.46875 0 L 103.25 0 L 103.25 -1.46875 L 104.0625 -1.46875 C 104.9375 -1.46875 106.132812 -1.65625 107.65625 -2.03125 C 109.175781 -2.414062 110.613281 -3.148438 111.96875 -4.234375 C 113.332031 -5.328125 114.148438 -7.015625 114.421875 -9.296875 C 114.691406 -11.578125 113.90625 -14.675781 112.0625 -18.59375 L 101.296875 -42.25 L 47.140625 -42.25 L 41.75 -30.5 C 39.25 -25.0625 37.695312 -20.578125 37.09375 -17.046875 C 36.5 -13.515625 36.5 -10.6875 37.09375 -8.5625 C 37.695312 -6.4375 38.625 -4.882812 39.875 -3.90625 C 41.125 -2.9375 42.347656 -2.285156 43.546875 -1.953125 C 44.742188 -1.628906 45.613281 -1.46875 46.15625 -1.46875 L 46.65625 -1.46875 L 46.65625 0 L 8.15625 0 Z M 100.640625 -43.71875 L 74.21875 -101.609375 L 47.796875 -43.71875 Z M 100.640625 -43.71875 "/></g></g></g><g fill="#000000" fill-opacity="1"><g transform="translate(335.907787, 481.352703)"><g><path d="M 8.640625 -1.46875 C 15.171875 -1.570312 20.960938 -3.007812 26.015625 -5.78125 C 31.066406 -8.5625 35.769531 -12.832031 40.125 -18.59375 L 71.609375 -59.53125 L 32.296875 -121.671875 C 28.378906 -127.878906 24.546875 -132.335938 20.796875 -135.046875 C 17.046875 -137.765625 12.832031 -139.125 8.15625 -139.125 L 8.15625 -140.59375 L 74.375 -140.59375 L 74.375 -139.125 C 65.132812 -139.125 64.210938 -133.304688 71.609375 -121.671875 L 93.140625 -87.59375 L 119.390625 -121.671875 C 124.179688 -127.878906 126.085938 -132.335938 125.109375 -135.046875 C 124.128906 -137.765625 120.703125 -139.125 114.828125 -139.125 L 114.828125 -140.59375 L 153.328125 -140.59375 L 153.328125 -139.125 C 146.796875 -139.238281 140.835938 -137.71875 135.453125 -134.5625 C 130.078125 -131.40625 125.320312 -127.109375 121.1875 -121.671875 L 93.953125 -86.28125 L 136.84375 -18.59375 C 140.65625 -12.613281 144.378906 -8.289062 148.015625 -5.625 C 151.660156 -2.957031 155.550781 -1.570312 159.6875 -1.46875 L 159.6875 0 L 93.46875 0 L 93.46875 -1.46875 C 98.351562 -1.570312 101.148438 -3.007812 101.859375 -5.78125 C 102.566406 -8.5625 101.070312 -12.832031 97.375 -18.59375 L 72.421875 -58.234375 L 42.078125 -18.59375 L 40.125 -15.984375 C 36.863281 -10.984375 35.9375 -7.3125 37.34375 -4.96875 C 38.757812 -2.632812 42.023438 -1.46875 47.140625 -1.46875 L 47.140625 0 L 8.640625 0 Z M 8.640625 -1.46875 "/></g></g></g><g fill="#000000" fill-opacity="1"><g transform="translate(503.749702, 481.352703)"><g><path d="M 8.15625 -1.46875 C 14.132812 -1.46875 18.835938 -3.015625 22.265625 -6.109375 C 25.691406 -9.210938 27.40625 -13.425781 27.40625 -18.75 L 27.40625 -121.84375 C 27.40625 -127.28125 25.691406 -131.519531 22.265625 -134.5625 C 18.835938 -137.601562 14.132812 -139.125 8.15625 -139.125 L 8.15625 -140.59375 L 80.40625 -140.59375 L 80.40625 -139.125 C 74.425781 -139.125 69.722656 -137.601562 66.296875 -134.5625 C 62.878906 -131.519531 61.171875 -127.28125 61.171875 -121.84375 L 61.171875 -18.75 C 61.171875 -13.425781 62.878906 -9.210938 66.296875 -6.109375 C 69.722656 -3.015625 74.425781 -1.46875 80.40625 -1.46875 L 80.40625 0 L 8.15625 0 Z M 8.15625 -1.46875 "/></g></g></g><g fill="#000000" fill-opacity="1"><g transform="translate(592.319369, 481.352703)"><g><path d="M 8.3125 0 L 8.3125 -46.65625 L 9.78125 -46.65625 L 9.78125 -42.890625 C 9.78125 -37.671875 11.082031 -32.535156 13.6875 -27.484375 C 16.300781 -22.429688 19.835938 -17.890625 24.296875 -13.859375 C 28.753906 -9.835938 33.785156 -6.628906 39.390625 -4.234375 C 44.992188 -1.847656 50.785156 -0.65625 56.765625 -0.65625 C 64.703125 -0.65625 71.035156 -1.6875 75.765625 -3.75 C 80.492188 -5.8125 83.972656 -8.582031 86.203125 -12.0625 C 88.429688 -15.550781 89.597656 -19.304688 89.703125 -23.328125 C 89.816406 -27.023438 88.726562 -30.421875 86.4375 -33.515625 C 84.15625 -36.617188 81.082031 -39.554688 77.21875 -42.328125 C 73.363281 -45.097656 69.125 -47.757812 64.5 -50.3125 C 59.882812 -52.875 55.320312 -55.429688 50.8125 -57.984375 C 46.300781 -60.535156 42.25 -63.117188 38.65625 -65.734375 C 30.5 -71.816406 24.191406 -77.359375 19.734375 -82.359375 C 15.273438 -87.367188 12.640625 -92.375 11.828125 -97.375 C 11.015625 -102.375 11.96875 -107.972656 14.6875 -114.171875 C 17.1875 -119.828125 20.800781 -124.71875 25.53125 -128.84375 C 30.257812 -132.976562 35.664062 -136.160156 41.75 -138.390625 C 47.84375 -140.617188 54.148438 -141.734375 60.671875 -141.734375 C 63.609375 -141.734375 66.488281 -141.488281 69.3125 -141 C 72.144531 -140.519531 74.8125 -139.679688 77.3125 -138.484375 C 78.726562 -137.828125 80.46875 -137.0625 82.53125 -136.1875 C 84.59375 -135.320312 86.65625 -134.644531 88.71875 -134.15625 C 90.789062 -133.664062 92.5625 -133.554688 94.03125 -133.828125 C 95.5 -134.097656 96.285156 -134.992188 96.390625 -136.515625 L 96.390625 -137.171875 L 97.859375 -137.171875 L 97.859375 -98.515625 L 96.390625 -98.515625 C 96.390625 -98.515625 96.304688 -99.46875 96.140625 -101.375 C 95.984375 -103.28125 95.660156 -105.695312 95.171875 -108.625 C 94.679688 -111.5625 93.863281 -114.710938 92.71875 -118.078125 C 91.582031 -121.453125 90.0625 -124.660156 88.15625 -127.703125 C 86.257812 -130.753906 83.84375 -133.203125 80.90625 -135.046875 C 78.070312 -136.679688 74.941406 -137.960938 71.515625 -138.890625 C 68.097656 -139.816406 64.484375 -140.28125 60.671875 -140.28125 C 54.367188 -140.28125 49.367188 -139.328125 45.671875 -137.421875 C 41.972656 -135.515625 39.363281 -132.929688 37.84375 -129.671875 C 36.320312 -126.410156 35.5625 -122.710938 35.5625 -118.578125 C 35.5625 -113.035156 37.460938 -108.113281 41.265625 -103.8125 C 45.066406 -99.519531 50.882812 -94.984375 58.71875 -90.203125 C 65.457031 -86.066406 71.816406 -82.421875 77.796875 -79.265625 C 83.785156 -76.117188 89.0625 -72.859375 93.625 -69.484375 C 98.1875 -66.109375 101.800781 -62.082031 104.46875 -57.40625 C 107.132812 -52.738281 108.46875 -46.816406 108.46875 -39.640625 C 108.46875 -34.960938 107.378906 -29.984375 105.203125 -24.703125 C 103.023438 -19.429688 100.304688 -15.164062 97.046875 -11.90625 C 93.566406 -8.425781 89.269531 -5.679688 84.15625 -3.671875 C 79.050781 -1.660156 73.535156 -0.359375 67.609375 0.234375 C 61.679688 0.835938 55.753906 0.785156 49.828125 0.078125 C 43.898438 -0.628906 38.328125 -1.960938 33.109375 -3.921875 C 27.566406 -6.085938 23.21875 -7.441406 20.0625 -7.984375 C 16.90625 -8.535156 14.59375 -8.507812 13.125 -7.90625 C 11.65625 -7.3125 10.726562 -6.332031 10.34375 -4.96875 C 9.96875 -3.613281 9.78125 -2.007812 9.78125 -0.15625 L 9.78125 0 Z M 8.3125 0 "/></g></g></g><g clip-path="url(#242b7d7a8b)"><g clip-path="url(#6f7aba0f03)"><path fill="#ffffff" d="M 380.382812 378.351562 L 623.558594 378.351562 L 623.558594 450.488281 L 380.382812 450.488281 Z M 380.382812 378.351562 " fill-opacity="1" fill-rule="nonzero"/></g></g><g fill="#000000" fill-opacity="1"><g transform="translate(304.928804, 417.263133)"><g><path d="M 0.796875 0.09375 C 0.535156 0.09375 0.40625 0.0195312 0.40625 -0.125 C 0.40625 -0.269531 0.488281 -0.34375 0.65625 -0.34375 C 0.914062 -0.34375 1.097656 -0.382812 1.203125 -0.46875 C 1.410156 -0.613281 1.535156 -0.875 1.578125 -1.25 C 1.585938 -1.332031 1.597656 -1.460938 1.609375 -1.640625 C 1.617188 -1.816406 1.628906 -2.019531 1.640625 -2.25 C 1.660156 -2.488281 1.675781 -2.75 1.6875 -3.03125 C 1.695312 -3.320312 1.707031 -3.617188 1.71875 -3.921875 C 1.738281 -4.222656 1.753906 -4.523438 1.765625 -4.828125 C 1.773438 -5.140625 1.785156 -5.429688 1.796875 -5.703125 C 1.816406 -6.390625 1.828125 -6.820312 1.828125 -7 C 1.828125 -7.1875 1.8125 -7.328125 1.78125 -7.421875 C 1.757812 -7.523438 1.722656 -7.613281 1.671875 -7.6875 C 1.578125 -7.800781 1.429688 -7.867188 1.234375 -7.890625 C 0.878906 -7.941406 0.703125 -8.019531 0.703125 -8.125 C 0.703125 -8.195312 0.726562 -8.253906 0.78125 -8.296875 C 0.832031 -8.335938 0.898438 -8.359375 0.984375 -8.359375 L 1.953125 -8.265625 L 2.484375 -8.296875 C 2.585938 -8.296875 2.671875 -8.253906 2.734375 -8.171875 C 2.796875 -8.085938 2.867188 -7.960938 2.953125 -7.796875 L 5.9375 -1.609375 C 6.007812 -1.773438 6.101562 -1.988281 6.21875 -2.25 C 6.332031 -2.507812 6.457031 -2.800781 6.59375 -3.125 C 6.738281 -3.445312 6.890625 -3.785156 7.046875 -4.140625 C 7.203125 -4.492188 7.351562 -4.847656 7.5 -5.203125 C 7.65625 -5.554688 7.800781 -5.894531 7.9375 -6.21875 C 8.082031 -6.550781 8.207031 -6.84375 8.3125 -7.09375 C 8.414062 -7.34375 8.503906 -7.546875 8.578125 -7.703125 C 8.648438 -7.867188 8.695312 -7.984375 8.71875 -8.046875 C 8.75 -8.117188 8.800781 -8.179688 8.875 -8.234375 C 8.957031 -8.296875 9.050781 -8.328125 9.15625 -8.328125 L 9.734375 -8.296875 L 10.46875 -8.359375 C 10.78125 -8.359375 10.9375 -8.28125 10.9375 -8.125 C 10.9375 -8.050781 10.867188 -8 10.734375 -7.96875 C 10.597656 -7.945312 10.484375 -7.925781 10.390625 -7.90625 C 10.296875 -7.882812 10.207031 -7.851562 10.125 -7.8125 C 9.9375 -7.707031 9.84375 -7.539062 9.84375 -7.3125 L 10.15625 -1.265625 C 10.1875 -0.734375 10.382812 -0.4375 10.75 -0.375 C 10.851562 -0.351562 10.953125 -0.34375 11.046875 -0.34375 C 11.222656 -0.34375 11.3125 -0.269531 11.3125 -0.125 C 11.3125 0.0195312 11.1875 0.09375 10.9375 0.09375 C 10.832031 0.09375 10.738281 0.0859375 10.65625 0.078125 C 10.582031 0.0664062 10.507812 0.0546875 10.4375 0.046875 C 10.21875 0.015625 10.019531 0 9.84375 0 L 8.53125 0.09375 C 8.257812 0.09375 8.125 0.015625 8.125 -0.140625 C 8.125 -0.265625 8.21875 -0.328125 8.40625 -0.328125 C 8.601562 -0.328125 8.742188 -0.34375 8.828125 -0.375 C 8.921875 -0.40625 8.988281 -0.453125 9.03125 -0.515625 C 9.09375 -0.617188 9.125 -0.851562 9.125 -1.21875 L 9.125 -1.796875 C 9.125 -2.078125 9.101562 -2.644531 9.0625 -3.5 C 9.019531 -4.351562 8.988281 -4.960938 8.96875 -5.328125 C 8.9375 -6.097656 8.90625 -6.679688 8.875 -7.078125 L 5.96875 -0.40625 C 5.851562 -0.15625 5.753906 -0.03125 5.671875 -0.03125 C 5.609375 -0.03125 5.554688 -0.0625 5.515625 -0.125 C 5.484375 -0.1875 5.4375 -0.28125 5.375 -0.40625 L 2.390625 -6.5625 C 2.234375 -4.46875 2.15625 -2.550781 2.15625 -0.8125 C 2.15625 -0.476562 2.425781 -0.3125 2.96875 -0.3125 C 3.113281 -0.3125 3.1875 -0.253906 3.1875 -0.140625 C 3.1875 0.015625 3.054688 0.09375 2.796875 0.09375 L 1.796875 0 C 1.585938 0 1.390625 0.015625 1.203125 0.046875 C 1.015625 0.078125 0.878906 0.09375 0.796875 0.09375 Z M 9.0625 -7.515625 Z M 9.0625 -7.515625 "/></g></g></g><g fill="#000000" fill-opacity="1"><g transform="translate(326.760024, 417.263133)"><g><path d="M 0.609375 -4.171875 C 0.609375 -4.796875 0.722656 -5.363281 0.953125 -5.875 C 1.191406 -6.394531 1.507812 -6.84375 1.90625 -7.21875 C 2.300781 -7.601562 2.757812 -7.898438 3.28125 -8.109375 C 3.800781 -8.316406 4.363281 -8.421875 4.96875 -8.421875 C 5.570312 -8.421875 6.132812 -8.304688 6.65625 -8.078125 C 7.175781 -7.859375 7.617188 -7.554688 7.984375 -7.171875 C 8.765625 -6.359375 9.15625 -5.320312 9.15625 -4.0625 C 9.15625 -2.875 8.753906 -1.878906 7.953125 -1.078125 C 7.128906 -0.253906 6.085938 0.15625 4.828125 0.15625 C 3.597656 0.15625 2.582031 -0.253906 1.78125 -1.078125 C 1 -1.898438 0.609375 -2.929688 0.609375 -4.171875 Z M 1.671875 -4.53125 C 1.671875 -3.988281 1.753906 -3.457031 1.921875 -2.9375 C 2.097656 -2.425781 2.347656 -1.984375 2.671875 -1.609375 C 3.359375 -0.773438 4.226562 -0.359375 5.28125 -0.359375 C 6.082031 -0.359375 6.742188 -0.660156 7.265625 -1.265625 C 7.796875 -1.890625 8.0625 -2.710938 8.0625 -3.734375 C 8.0625 -4.941406 7.742188 -5.941406 7.109375 -6.734375 C 6.460938 -7.515625 5.648438 -7.90625 4.671875 -7.90625 C 3.859375 -7.90625 3.160156 -7.597656 2.578125 -6.984375 C 1.972656 -6.335938 1.671875 -5.519531 1.671875 -4.53125 Z M 1.671875 -4.53125 "/></g></g></g><g fill="#000000" fill-opacity="1"><g transform="translate(346.642496, 417.263133)"><g><path d="M 0.8125 0.09375 C 0.550781 0.09375 0.421875 0.015625 0.421875 -0.140625 C 0.421875 -0.253906 0.492188 -0.3125 0.640625 -0.3125 L 0.9375 -0.28125 C 1.1875 -0.28125 1.351562 -0.421875 1.4375 -0.703125 C 1.507812 -0.929688 1.546875 -1.347656 1.546875 -1.953125 L 1.546875 -6.3125 C 1.546875 -6.914062 1.515625 -7.3125 1.453125 -7.5 C 1.398438 -7.6875 1.332031 -7.8125 1.25 -7.875 C 1.175781 -7.945312 1.070312 -7.984375 0.9375 -7.984375 L 0.640625 -7.953125 C 0.492188 -7.953125 0.421875 -8.007812 0.421875 -8.125 C 0.421875 -8.28125 0.53125 -8.359375 0.75 -8.359375 C 0.976562 -8.359375 1.175781 -8.34375 1.34375 -8.3125 C 1.519531 -8.28125 1.6875 -8.265625 1.84375 -8.265625 C 2.28125 -8.265625 2.644531 -8.285156 2.9375 -8.328125 C 3.375 -8.390625 3.875 -8.421875 4.4375 -8.421875 C 5 -8.421875 5.5625 -8.316406 6.125 -8.109375 C 6.6875 -7.910156 7.164062 -7.625 7.5625 -7.25 C 8.425781 -6.46875 8.859375 -5.4375 8.859375 -4.15625 C 8.859375 -2.945312 8.4375 -1.941406 7.59375 -1.140625 C 6.71875 -0.296875 5.578125 0.125 4.171875 0.125 C 3.828125 0.125 3.492188 0.109375 3.171875 0.078125 C 2.578125 0.0234375 2.144531 0 1.875 0 Z M 2.515625 -2.84375 C 2.515625 -2.113281 2.535156 -1.429688 2.578125 -0.796875 C 3.117188 -0.515625 3.726562 -0.375 4.40625 -0.375 C 4.90625 -0.375 5.425781 -0.492188 5.96875 -0.734375 C 6.8125 -1.097656 7.363281 -1.757812 7.625 -2.71875 C 7.71875 -3.050781 7.765625 -3.484375 7.765625 -4.015625 C 7.765625 -4.554688 7.671875 -5.078125 7.484375 -5.578125 C 7.304688 -6.085938 7.050781 -6.515625 6.71875 -6.859375 C 6.050781 -7.566406 5.148438 -7.921875 4.015625 -7.921875 C 3.203125 -7.921875 2.738281 -7.8125 2.625 -7.59375 C 2.5625 -7.476562 2.523438 -7.347656 2.515625 -7.203125 C 2.515625 -7.054688 2.515625 -6.914062 2.515625 -6.78125 Z M 2.515625 -2.84375 "/></g></g></g><g fill="#000000" fill-opacity="1"><g transform="translate(366.228957, 417.263133)"><g><path d="M 0.734375 0.09375 C 0.515625 0.09375 0.40625 0.015625 0.40625 -0.140625 C 0.40625 -0.253906 0.476562 -0.3125 0.625 -0.3125 L 0.921875 -0.28125 C 1.148438 -0.28125 1.304688 -0.378906 1.390625 -0.578125 C 1.484375 -0.804688 1.53125 -1.257812 1.53125 -1.9375 L 1.53125 -6.3125 C 1.53125 -6.976562 1.5 -7.398438 1.4375 -7.578125 C 1.375 -7.753906 1.300781 -7.863281 1.21875 -7.90625 C 1.144531 -7.957031 1.046875 -7.984375 0.921875 -7.984375 L 0.625 -7.953125 C 0.476562 -7.953125 0.40625 -8.007812 0.40625 -8.125 C 0.40625 -8.28125 0.515625 -8.359375 0.734375 -8.359375 C 0.953125 -8.359375 1.128906 -8.351562 1.265625 -8.34375 C 1.410156 -8.332031 1.554688 -8.320312 1.703125 -8.3125 C 2.085938 -8.28125 2.390625 -8.265625 2.609375 -8.265625 C 2.828125 -8.265625 3.054688 -8.269531 3.296875 -8.28125 C 3.546875 -8.289062 3.820312 -8.300781 4.125 -8.3125 C 4.925781 -8.34375 5.484375 -8.359375 5.796875 -8.359375 C 6.109375 -8.359375 6.28125 -8.335938 6.3125 -8.296875 C 6.351562 -8.265625 6.375 -8.21875 6.375 -8.15625 C 6.375 -8.09375 6.367188 -8.03125 6.359375 -7.96875 C 6.359375 -7.914062 6.359375 -7.851562 6.359375 -7.78125 C 6.347656 -7.6875 6.332031 -7.546875 6.3125 -7.359375 C 6.289062 -7.171875 6.265625 -7.046875 6.234375 -6.984375 C 6.210938 -6.921875 6.175781 -6.890625 6.125 -6.890625 C 6.070312 -6.890625 6.035156 -6.898438 6.015625 -6.921875 C 5.992188 -6.953125 5.960938 -7.015625 5.921875 -7.109375 C 5.890625 -7.203125 5.828125 -7.289062 5.734375 -7.375 C 5.648438 -7.46875 5.515625 -7.546875 5.328125 -7.609375 C 4.953125 -7.722656 4.265625 -7.78125 3.265625 -7.78125 L 2.71875 -7.78125 C 2.625 -7.78125 2.5625 -7.765625 2.53125 -7.734375 C 2.507812 -7.703125 2.5 -7.632812 2.5 -7.53125 L 2.5 -4.9375 C 2.988281 -4.875 3.394531 -4.84375 3.71875 -4.84375 C 4.039062 -4.84375 4.269531 -4.84375 4.40625 -4.84375 C 4.539062 -4.851562 4.65625 -4.867188 4.75 -4.890625 C 4.90625 -4.921875 5.019531 -4.992188 5.09375 -5.109375 C 5.226562 -5.328125 5.34375 -5.4375 5.4375 -5.4375 C 5.539062 -5.4375 5.59375 -5.378906 5.59375 -5.265625 L 5.375 -4.390625 L 5.40625 -3.921875 C 5.40625 -3.628906 5.335938 -3.484375 5.203125 -3.484375 C 5.078125 -3.484375 5.015625 -3.5625 5.015625 -3.71875 C 5.015625 -3.875 5.003906 -3.988281 4.984375 -4.0625 C 4.972656 -4.144531 4.921875 -4.207031 4.828125 -4.25 C 4.703125 -4.320312 4.382812 -4.359375 3.875 -4.359375 C 3.363281 -4.359375 2.90625 -4.332031 2.5 -4.28125 L 2.5 -2.828125 C 2.5 -1.921875 2.519531 -1.171875 2.5625 -0.578125 C 2.894531 -0.503906 3.253906 -0.46875 3.640625 -0.46875 C 4.035156 -0.46875 4.367188 -0.476562 4.640625 -0.5 C 4.921875 -0.519531 5.160156 -0.554688 5.359375 -0.609375 C 5.765625 -0.734375 6.0625 -0.960938 6.25 -1.296875 C 6.332031 -1.441406 6.410156 -1.515625 6.484375 -1.515625 C 6.566406 -1.515625 6.609375 -1.457031 6.609375 -1.34375 C 6.609375 -1.289062 6.597656 -1.226562 6.578125 -1.15625 C 6.535156 -1.050781 6.484375 -0.890625 6.421875 -0.671875 C 6.367188 -0.460938 6.320312 -0.3125 6.28125 -0.21875 C 6.25 -0.125 6.210938 -0.0507812 6.171875 0 C 6.109375 0.0820312 5.988281 0.125 5.8125 0.125 C 5.632812 0.125 5.457031 0.117188 5.28125 0.109375 C 5.113281 0.109375 4.941406 0.109375 4.765625 0.109375 C 4.546875 0.0976562 4.210938 0.0820312 3.765625 0.0625 C 2.648438 0.0078125 1.992188 -0.0078125 1.796875 0 C 1.609375 0.0195312 1.460938 0.0351562 1.359375 0.046875 C 1.265625 0.0546875 1.171875 0.0664062 1.078125 0.078125 C 0.984375 0.0859375 0.867188 0.09375 0.734375 0.09375 Z M 0.734375 0.09375 "/></g></g></g><g fill="#000000" fill-opacity="1"><g transform="translate(383.447315, 417.263133)"><g><path d="M 0.765625 0.09375 C 0.535156 0.09375 0.421875 0.015625 0.421875 -0.140625 C 0.421875 -0.253906 0.492188 -0.3125 0.640625 -0.3125 L 0.9375 -0.28125 C 1.1875 -0.28125 1.351562 -0.421875 1.4375 -0.703125 C 1.507812 -0.929688 1.546875 -1.347656 1.546875 -1.953125 L 1.546875 -6.3125 C 1.546875 -6.914062 1.515625 -7.3125 1.453125 -7.5 C 1.398438 -7.6875 1.332031 -7.8125 1.25 -7.875 C 1.175781 -7.945312 1.070312 -7.984375 0.9375 -7.984375 L 0.640625 -7.953125 C 0.492188 -7.953125 0.421875 -8.007812 0.421875 -8.125 C 0.421875 -8.28125 0.53125 -8.359375 0.75 -8.359375 C 0.976562 -8.359375 1.191406 -8.34375 1.390625 -8.3125 C 1.597656 -8.28125 1.8125 -8.265625 2.03125 -8.265625 C 2.257812 -8.265625 2.472656 -8.28125 2.671875 -8.3125 C 2.867188 -8.34375 3.078125 -8.359375 3.296875 -8.359375 C 3.523438 -8.359375 3.640625 -8.28125 3.640625 -8.125 C 3.640625 -8.007812 3.566406 -7.953125 3.421875 -7.953125 L 3.125 -7.984375 C 2.875 -7.984375 2.703125 -7.84375 2.609375 -7.5625 C 2.546875 -7.34375 2.515625 -6.925781 2.515625 -6.3125 L 2.515625 -2.828125 C 2.515625 -1.921875 2.535156 -1.171875 2.578125 -0.578125 C 2.878906 -0.503906 3.210938 -0.46875 3.578125 -0.46875 C 3.941406 -0.46875 4.253906 -0.484375 4.515625 -0.515625 C 4.785156 -0.554688 5.019531 -0.617188 5.21875 -0.703125 C 5.59375 -0.859375 5.878906 -1.117188 6.078125 -1.484375 C 6.160156 -1.628906 6.242188 -1.703125 6.328125 -1.703125 C 6.410156 -1.703125 6.453125 -1.640625 6.453125 -1.515625 C 6.453125 -1.472656 6.4375 -1.410156 6.40625 -1.328125 C 6.375 -1.222656 6.328125 -1.0625 6.265625 -0.84375 C 6.203125 -0.632812 6.148438 -0.472656 6.109375 -0.359375 C 6.078125 -0.253906 6.035156 -0.164062 5.984375 -0.09375 C 5.890625 0.0507812 5.753906 0.125 5.578125 0.125 C 5.398438 0.125 5.234375 0.117188 5.078125 0.109375 C 4.921875 0.109375 4.753906 0.101562 4.578125 0.09375 C 4.410156 0.09375 4.226562 0.0859375 4.03125 0.078125 C 3.832031 0.0664062 3.609375 0.0546875 3.359375 0.046875 C 3.109375 0.0351562 2.890625 0.0234375 2.703125 0.015625 C 2.523438 0.00390625 2.34375 0 2.15625 0 C 1.976562 0 1.828125 0.00390625 1.703125 0.015625 C 1.578125 0.0234375 1.46875 0.0351562 1.375 0.046875 C 1.28125 0.0546875 1.179688 0.0664062 1.078125 0.078125 C 0.984375 0.0859375 0.878906 0.09375 0.765625 0.09375 Z M 0.765625 0.09375 "/></g></g></g><g fill="#000000" fill-opacity="1"><g transform="translate(400.320325, 417.263133)"><g/></g></g><g fill="#000000" fill-opacity="1"><g transform="translate(413.665854, 417.263133)"><g><path d="M 0.796875 0.09375 C 0.535156 0.09375 0.40625 0.0195312 0.40625 -0.125 C 0.40625 -0.269531 0.488281 -0.34375 0.65625 -0.34375 C 0.914062 -0.34375 1.097656 -0.382812 1.203125 -0.46875 C 1.410156 -0.613281 1.535156 -0.875 1.578125 -1.25 C 1.585938 -1.332031 1.597656 -1.460938 1.609375 -1.640625 C 1.617188 -1.816406 1.628906 -2.019531 1.640625 -2.25 C 1.660156 -2.488281 1.675781 -2.75 1.6875 -3.03125 C 1.695312 -3.320312 1.707031 -3.617188 1.71875 -3.921875 C 1.738281 -4.222656 1.753906 -4.523438 1.765625 -4.828125 C 1.773438 -5.140625 1.785156 -5.429688 1.796875 -5.703125 C 1.816406 -6.390625 1.828125 -6.820312 1.828125 -7 C 1.828125 -7.1875 1.8125 -7.328125 1.78125 -7.421875 C 1.757812 -7.523438 1.722656 -7.613281 1.671875 -7.6875 C 1.578125 -7.800781 1.429688 -7.867188 1.234375 -7.890625 C 0.878906 -7.941406 0.703125 -8.019531 0.703125 -8.125 C 0.703125 -8.195312 0.726562 -8.253906 0.78125 -8.296875 C 0.832031 -8.335938 0.898438 -8.359375 0.984375 -8.359375 L 1.953125 -8.265625 L 2.484375 -8.296875 C 2.585938 -8.296875 2.671875 -8.253906 2.734375 -8.171875 C 2.796875 -8.085938 2.867188 -7.960938 2.953125 -7.796875 L 5.9375 -1.609375 C 6.007812 -1.773438 6.101562 -1.988281 6.21875 -2.25 C 6.332031 -2.507812 6.457031 -2.800781 6.59375 -3.125 C 6.738281 -3.445312 6.890625 -3.785156 7.046875 -4.140625 C 7.203125 -4.492188 7.351562 -4.847656 7.5 -5.203125 C 7.65625 -5.554688 7.800781 -5.894531 7.9375 -6.21875 C 8.082031 -6.550781 8.207031 -6.84375 8.3125 -7.09375 C 8.414062 -7.34375 8.503906 -7.546875 8.578125 -7.703125 C 8.648438 -7.867188 8.695312 -7.984375 8.71875 -8.046875 C 8.75 -8.117188 8.800781 -8.179688 8.875 -8.234375 C 8.957031 -8.296875 9.050781 -8.328125 9.15625 -8.328125 L 9.734375 -8.296875 L 10.46875 -8.359375 C 10.78125 -8.359375 10.9375 -8.28125 10.9375 -8.125 C 10.9375 -8.050781 10.867188 -8 10.734375 -7.96875 C 10.597656 -7.945312 10.484375 -7.925781 10.390625 -7.90625 C 10.296875 -7.882812 10.207031 -7.851562 10.125 -7.8125 C 9.9375 -7.707031 9.84375 -7.539062 9.84375 -7.3125 L 10.15625 -1.265625 C 10.1875 -0.734375 10.382812 -0.4375 10.75 -0.375 C 10.851562 -0.351562 10.953125 -0.34375 11.046875 -0.34375 C 11.222656 -0.34375 11.3125 -0.269531 11.3125 -0.125 C 11.3125 0.0195312 11.1875 0.09375 10.9375 0.09375 C 10.832031 0.09375 10.738281 0.0859375 10.65625 0.078125 C 10.582031 0.0664062 10.507812 0.0546875 10.4375 0.046875 C 10.21875 0.015625 10.019531 0 9.84375 0 L 8.53125 0.09375 C 8.257812 0.09375 8.125 0.015625 8.125 -0.140625 C 8.125 -0.265625 8.21875 -0.328125 8.40625 -0.328125 C 8.601562 -0.328125 8.742188 -0.34375 8.828125 -0.375 C 8.921875 -0.40625 8.988281 -0.453125 9.03125 -0.515625 C 9.09375 -0.617188 9.125 -0.851562 9.125 -1.21875 L 9.125 -1.796875 C 9.125 -2.078125 9.101562 -2.644531 9.0625 -3.5 C 9.019531 -4.351562 8.988281 -4.960938 8.96875 -5.328125 C 8.9375 -6.097656 8.90625 -6.679688 8.875 -7.078125 L 5.96875 -0.40625 C 5.851562 -0.15625 5.753906 -0.03125 5.671875 -0.03125 C 5.609375 -0.03125 5.554688 -0.0625 5.515625 -0.125 C 5.484375 -0.1875 5.4375 -0.28125 5.375 -0.40625 L 2.390625 -6.5625 C 2.234375 -4.46875 2.15625 -2.550781 2.15625 -0.8125 C 2.15625 -0.476562 2.425781 -0.3125 2.96875 -0.3125 C 3.113281 -0.3125 3.1875 -0.253906 3.1875 -0.140625 C 3.1875 0.015625 3.054688 0.09375 2.796875 0.09375 L 1.796875 0 C 1.585938 0 1.390625 0.015625 1.203125 0.046875 C 1.015625 0.078125 0.878906 0.09375 0.796875 0.09375 Z M 9.0625 -7.515625 Z M 9.0625 -7.515625 "/></g></g></g><g fill="#000000" fill-opacity="1"><g transform="translate(435.497079, 417.263133)"><g><path d="M 1.375 0 C 1.164062 0 0.96875 0.015625 0.78125 0.046875 C 0.601562 0.078125 0.40625 0.09375 0.1875 0.09375 C -0.0195312 0.09375 -0.125 0.0234375 -0.125 -0.109375 C -0.125 -0.253906 -0.0234375 -0.328125 0.171875 -0.328125 C 0.367188 -0.328125 0.507812 -0.363281 0.59375 -0.4375 C 0.738281 -0.5625 0.878906 -0.765625 1.015625 -1.046875 C 1.148438 -1.335938 1.273438 -1.609375 1.390625 -1.859375 C 1.503906 -2.109375 1.632812 -2.398438 1.78125 -2.734375 C 1.9375 -3.078125 2.109375 -3.453125 2.296875 -3.859375 C 2.484375 -4.273438 2.675781 -4.710938 2.875 -5.171875 C 3.394531 -6.398438 3.738281 -7.222656 3.90625 -7.640625 C 4.082031 -8.054688 4.175781 -8.285156 4.1875 -8.328125 C 4.207031 -8.378906 4.226562 -8.425781 4.25 -8.46875 C 4.300781 -8.550781 4.34375 -8.59375 4.375 -8.59375 C 4.414062 -8.59375 4.445312 -8.585938 4.46875 -8.578125 C 4.5 -8.566406 4.53125 -8.546875 4.5625 -8.515625 C 4.625 -8.441406 4.6875 -8.328125 4.75 -8.171875 C 4.8125 -8.015625 4.894531 -7.804688 5 -7.546875 C 5.101562 -7.285156 5.222656 -6.988281 5.359375 -6.65625 C 5.492188 -6.320312 5.632812 -5.960938 5.78125 -5.578125 C 5.9375 -5.191406 6.09375 -4.804688 6.25 -4.421875 C 6.40625 -4.046875 6.554688 -3.679688 6.703125 -3.328125 C 6.847656 -2.972656 6.976562 -2.648438 7.09375 -2.359375 C 7.445312 -1.503906 7.671875 -0.988281 7.765625 -0.8125 C 7.867188 -0.644531 7.953125 -0.53125 8.015625 -0.46875 C 8.117188 -0.375 8.269531 -0.328125 8.46875 -0.328125 C 8.664062 -0.328125 8.765625 -0.253906 8.765625 -0.109375 C 8.765625 0.0234375 8.640625 0.09375 8.390625 0.09375 C 8.273438 0.09375 8.175781 0.0859375 8.09375 0.078125 C 8.019531 0.0664062 7.941406 0.0546875 7.859375 0.046875 C 7.617188 0.015625 7.40625 0 7.21875 0 L 6.03125 0.09375 C 5.757812 0.09375 5.625 0.015625 5.625 -0.140625 C 5.625 -0.265625 5.695312 -0.328125 5.84375 -0.328125 L 6.21875 -0.28125 C 6.375 -0.28125 6.476562 -0.3125 6.53125 -0.375 C 6.582031 -0.445312 6.609375 -0.535156 6.609375 -0.640625 C 6.609375 -0.828125 6.523438 -1.125 6.359375 -1.53125 L 5.84375 -2.8125 L 2.421875 -2.8125 C 2.328125 -2.570312 2.234375 -2.347656 2.140625 -2.140625 C 2.054688 -1.929688 1.984375 -1.734375 1.921875 -1.546875 C 1.804688 -1.234375 1.75 -0.984375 1.75 -0.796875 C 1.75 -0.617188 1.78125 -0.488281 1.84375 -0.40625 C 1.90625 -0.320312 2.023438 -0.28125 2.203125 -0.28125 L 2.578125 -0.3125 C 2.722656 -0.3125 2.796875 -0.253906 2.796875 -0.140625 C 2.796875 0.015625 2.660156 0.09375 2.390625 0.09375 Z M 5.640625 -3.34375 L 4.171875 -7.015625 C 3.878906 -6.296875 3.367188 -5.070312 2.640625 -3.34375 Z M 5.640625 -3.34375 "/></g></g></g><g fill="#000000" fill-opacity="1"><g transform="translate(454.318837, 417.263133)"><g><path d="M 0.84375 0.09375 C 0.570312 0.09375 0.4375 0.015625 0.4375 -0.140625 C 0.4375 -0.253906 0.507812 -0.3125 0.65625 -0.3125 L 0.96875 -0.28125 C 1.207031 -0.28125 1.367188 -0.421875 1.453125 -0.703125 C 1.523438 -0.929688 1.5625 -1.347656 1.5625 -1.953125 L 1.5625 -6.296875 C 1.5625 -6.898438 1.53125 -7.289062 1.46875 -7.46875 C 1.414062 -7.65625 1.347656 -7.78125 1.265625 -7.84375 C 1.191406 -7.914062 1.09375 -7.953125 0.96875 -7.953125 L 0.65625 -7.921875 C 0.507812 -7.921875 0.4375 -7.984375 0.4375 -8.109375 C 0.4375 -8.273438 0.570312 -8.359375 0.84375 -8.359375 L 1.640625 -8.265625 C 1.816406 -8.265625 1.972656 -8.273438 2.109375 -8.296875 L 7.78125 -1.6875 L 7.78125 -6.3125 C 7.78125 -6.90625 7.75 -7.296875 7.6875 -7.484375 C 7.625 -7.679688 7.550781 -7.8125 7.46875 -7.875 C 7.382812 -7.945312 7.28125 -7.984375 7.15625 -7.984375 L 6.84375 -7.953125 C 6.695312 -7.953125 6.625 -8.007812 6.625 -8.125 C 6.625 -8.28125 6.757812 -8.359375 7.03125 -8.359375 C 7.132812 -8.359375 7.269531 -8.34375 7.4375 -8.3125 C 7.65625 -8.28125 7.851562 -8.265625 8.03125 -8.265625 C 8.207031 -8.265625 8.378906 -8.28125 8.546875 -8.3125 C 8.710938 -8.34375 8.910156 -8.359375 9.140625 -8.359375 C 9.367188 -8.359375 9.484375 -8.28125 9.484375 -8.125 C 9.484375 -8.007812 9.410156 -7.953125 9.265625 -7.953125 L 8.953125 -7.984375 C 8.703125 -7.984375 8.535156 -7.84375 8.453125 -7.5625 C 8.390625 -7.34375 8.359375 -6.925781 8.359375 -6.3125 L 8.359375 -0.078125 C 8.359375 0.0546875 8.34375 0.144531 8.3125 0.1875 C 8.289062 0.238281 8.253906 0.265625 8.203125 0.265625 C 8.128906 0.265625 8.007812 0.175781 7.84375 0 L 2.15625 -6.578125 L 2.15625 -1.953125 C 2.15625 -1.328125 2.179688 -0.925781 2.234375 -0.75 C 2.296875 -0.570312 2.367188 -0.445312 2.453125 -0.375 C 2.535156 -0.3125 2.640625 -0.28125 2.765625 -0.28125 L 3.0625 -0.3125 C 3.207031 -0.3125 3.28125 -0.253906 3.28125 -0.140625 C 3.28125 0.015625 3.160156 0.09375 2.921875 0.09375 C 2.691406 0.09375 2.484375 0.078125 2.296875 0.046875 C 2.117188 0.015625 1.941406 0 1.765625 0 C 1.597656 0 1.429688 0.015625 1.265625 0.046875 C 1.097656 0.078125 0.957031 0.09375 0.84375 0.09375 Z M 0.84375 0.09375 "/></g></g></g><g fill="#000000" fill-opacity="1"><g transform="translate(474.016299, 417.263133)"><g><path d="M 1.375 0 C 1.164062 0 0.96875 0.015625 0.78125 0.046875 C 0.601562 0.078125 0.40625 0.09375 0.1875 0.09375 C -0.0195312 0.09375 -0.125 0.0234375 -0.125 -0.109375 C -0.125 -0.253906 -0.0234375 -0.328125 0.171875 -0.328125 C 0.367188 -0.328125 0.507812 -0.363281 0.59375 -0.4375 C 0.738281 -0.5625 0.878906 -0.765625 1.015625 -1.046875 C 1.148438 -1.335938 1.273438 -1.609375 1.390625 -1.859375 C 1.503906 -2.109375 1.632812 -2.398438 1.78125 -2.734375 C 1.9375 -3.078125 2.109375 -3.453125 2.296875 -3.859375 C 2.484375 -4.273438 2.675781 -4.710938 2.875 -5.171875 C 3.394531 -6.398438 3.738281 -7.222656 3.90625 -7.640625 C 4.082031 -8.054688 4.175781 -8.285156 4.1875 -8.328125 C 4.207031 -8.378906 4.226562 -8.425781 4.25 -8.46875 C 4.300781 -8.550781 4.34375 -8.59375 4.375 -8.59375 C 4.414062 -8.59375 4.445312 -8.585938 4.46875 -8.578125 C 4.5 -8.566406 4.53125 -8.546875 4.5625 -8.515625 C 4.625 -8.441406 4.6875 -8.328125 4.75 -8.171875 C 4.8125 -8.015625 4.894531 -7.804688 5 -7.546875 C 5.101562 -7.285156 5.222656 -6.988281 5.359375 -6.65625 C 5.492188 -6.320312 5.632812 -5.960938 5.78125 -5.578125 C 5.9375 -5.191406 6.09375 -4.804688 6.25 -4.421875 C 6.40625 -4.046875 6.554688 -3.679688 6.703125 -3.328125 C 6.847656 -2.972656 6.976562 -2.648438 7.09375 -2.359375 C 7.445312 -1.503906 7.671875 -0.988281 7.765625 -0.8125 C 7.867188 -0.644531 7.953125 -0.53125 8.015625 -0.46875 C 8.117188 -0.375 8.269531 -0.328125 8.46875 -0.328125 C 8.664062 -0.328125 8.765625 -0.253906 8.765625 -0.109375 C 8.765625 0.0234375 8.640625 0.09375 8.390625 0.09375 C 8.273438 0.09375 8.175781 0.0859375 8.09375 0.078125 C 8.019531 0.0664062 7.941406 0.0546875 7.859375 0.046875 C 7.617188 0.015625 7.40625 0 7.21875 0 L 6.03125 0.09375 C 5.757812 0.09375 5.625 0.015625 5.625 -0.140625 C 5.625 -0.265625 5.695312 -0.328125 5.84375 -0.328125 L 6.21875 -0.28125 C 6.375 -0.28125 6.476562 -0.3125 6.53125 -0.375 C 6.582031 -0.445312 6.609375 -0.535156 6.609375 -0.640625 C 6.609375 -0.828125 6.523438 -1.125 6.359375 -1.53125 L 5.84375 -2.8125 L 2.421875 -2.8125 C 2.328125 -2.570312 2.234375 -2.347656 2.140625 -2.140625 C 2.054688 -1.929688 1.984375 -1.734375 1.921875 -1.546875 C 1.804688 -1.234375 1.75 -0.984375 1.75 -0.796875 C 1.75 -0.617188 1.78125 -0.488281 1.84375 -0.40625 C 1.90625 -0.320312 2.023438 -0.28125 2.203125 -0.28125 L 2.578125 -0.3125 C 2.722656 -0.3125 2.796875 -0.253906 2.796875 -0.140625 C 2.796875 0.015625 2.660156 0.09375 2.390625 0.09375 Z M 5.640625 -3.34375 L 4.171875 -7.015625 C 3.878906 -6.296875 3.367188 -5.070312 2.640625 -3.34375 Z M 5.640625 -3.34375 "/></g></g></g><g fill="#000000" fill-opacity="1"><g transform="translate(492.838058, 417.263133)"><g><path d="M 8.671875 -3.9375 C 8.828125 -3.9375 8.90625 -3.875 8.90625 -3.75 C 8.90625 -3.695312 8.882812 -3.65625 8.84375 -3.625 C 8.8125 -3.59375 8.757812 -3.5625 8.6875 -3.53125 C 8.613281 -3.5 8.554688 -3.457031 8.515625 -3.40625 C 8.472656 -3.363281 8.441406 -3.296875 8.421875 -3.203125 C 8.378906 -3.015625 8.359375 -2.789062 8.359375 -2.53125 C 8.359375 -2.28125 8.359375 -2.113281 8.359375 -2.03125 C 8.367188 -1.957031 8.378906 -1.878906 8.390625 -1.796875 C 8.410156 -1.492188 8.425781 -1.296875 8.4375 -1.203125 C 8.457031 -1.117188 8.46875 -1.03125 8.46875 -0.9375 C 8.46875 -0.851562 8.414062 -0.757812 8.3125 -0.65625 C 8.207031 -0.5625 8.066406 -0.472656 7.890625 -0.390625 C 7.710938 -0.304688 7.507812 -0.226562 7.28125 -0.15625 C 7.050781 -0.09375 6.816406 -0.0351562 6.578125 0.015625 C 6.066406 0.117188 5.597656 0.171875 5.171875 0.171875 C 3.691406 0.171875 2.523438 -0.25 1.671875 -1.09375 C 0.898438 -1.863281 0.515625 -2.835938 0.515625 -4.015625 C 0.515625 -5.347656 0.941406 -6.414062 1.796875 -7.21875 C 2.660156 -8.03125 3.8125 -8.4375 5.25 -8.4375 C 6.3125 -8.4375 7.15625 -8.304688 7.78125 -8.046875 C 7.90625 -7.992188 7.988281 -7.941406 8.03125 -7.890625 C 8.113281 -7.773438 8.160156 -7.597656 8.171875 -7.359375 C 8.191406 -7.128906 8.207031 -6.96875 8.21875 -6.875 C 8.226562 -6.675781 8.234375 -6.550781 8.234375 -6.5 C 8.234375 -6.332031 8.175781 -6.25 8.0625 -6.25 C 7.957031 -6.25 7.875 -6.351562 7.8125 -6.5625 C 7.757812 -6.769531 7.644531 -6.960938 7.46875 -7.140625 C 7.289062 -7.316406 7.078125 -7.46875 6.828125 -7.59375 C 6.335938 -7.84375 5.789062 -7.96875 5.1875 -7.96875 C 4.59375 -7.96875 4.085938 -7.882812 3.671875 -7.71875 C 3.253906 -7.5625 2.894531 -7.328125 2.59375 -7.015625 C 1.988281 -6.390625 1.6875 -5.535156 1.6875 -4.453125 C 1.6875 -3.304688 2.035156 -2.332031 2.734375 -1.53125 C 3.066406 -1.15625 3.460938 -0.859375 3.921875 -0.640625 C 4.378906 -0.429688 4.878906 -0.328125 5.421875 -0.328125 C 6.285156 -0.328125 6.847656 -0.488281 7.109375 -0.8125 C 7.273438 -1.03125 7.359375 -1.320312 7.359375 -1.6875 L 7.359375 -3.03125 C 7.359375 -3.21875 7.3125 -3.335938 7.21875 -3.390625 C 7.101562 -3.453125 6.941406 -3.484375 6.734375 -3.484375 C 6.378906 -3.484375 6.203125 -3.5625 6.203125 -3.71875 C 6.203125 -3.875 6.34375 -3.953125 6.625 -3.953125 L 7.859375 -3.859375 Z M 8.671875 -3.9375 "/></g></g></g><g fill="#000000" fill-opacity="1"><g transform="translate(512.282668, 417.263133)"><g><path d="M 0.734375 0.09375 C 0.515625 0.09375 0.40625 0.015625 0.40625 -0.140625 C 0.40625 -0.253906 0.476562 -0.3125 0.625 -0.3125 L 0.921875 -0.28125 C 1.148438 -0.28125 1.304688 -0.378906 1.390625 -0.578125 C 1.484375 -0.804688 1.53125 -1.257812 1.53125 -1.9375 L 1.53125 -6.3125 C 1.53125 -6.976562 1.5 -7.398438 1.4375 -7.578125 C 1.375 -7.753906 1.300781 -7.863281 1.21875 -7.90625 C 1.144531 -7.957031 1.046875 -7.984375 0.921875 -7.984375 L 0.625 -7.953125 C 0.476562 -7.953125 0.40625 -8.007812 0.40625 -8.125 C 0.40625 -8.28125 0.515625 -8.359375 0.734375 -8.359375 C 0.953125 -8.359375 1.128906 -8.351562 1.265625 -8.34375 C 1.410156 -8.332031 1.554688 -8.320312 1.703125 -8.3125 C 2.085938 -8.28125 2.390625 -8.265625 2.609375 -8.265625 C 2.828125 -8.265625 3.054688 -8.269531 3.296875 -8.28125 C 3.546875 -8.289062 3.820312 -8.300781 4.125 -8.3125 C 4.925781 -8.34375 5.484375 -8.359375 5.796875 -8.359375 C 6.109375 -8.359375 6.28125 -8.335938 6.3125 -8.296875 C 6.351562 -8.265625 6.375 -8.21875 6.375 -8.15625 C 6.375 -8.09375 6.367188 -8.03125 6.359375 -7.96875 C 6.359375 -7.914062 6.359375 -7.851562 6.359375 -7.78125 C 6.347656 -7.6875 6.332031 -7.546875 6.3125 -7.359375 C 6.289062 -7.171875 6.265625 -7.046875 6.234375 -6.984375 C 6.210938 -6.921875 6.175781 -6.890625 6.125 -6.890625 C 6.070312 -6.890625 6.035156 -6.898438 6.015625 -6.921875 C 5.992188 -6.953125 5.960938 -7.015625 5.921875 -7.109375 C 5.890625 -7.203125 5.828125 -7.289062 5.734375 -7.375 C 5.648438 -7.46875 5.515625 -7.546875 5.328125 -7.609375 C 4.953125 -7.722656 4.265625 -7.78125 3.265625 -7.78125 L 2.71875 -7.78125 C 2.625 -7.78125 2.5625 -7.765625 2.53125 -7.734375 C 2.507812 -7.703125 2.5 -7.632812 2.5 -7.53125 L 2.5 -4.9375 C 2.988281 -4.875 3.394531 -4.84375 3.71875 -4.84375 C 4.039062 -4.84375 4.269531 -4.84375 4.40625 -4.84375 C 4.539062 -4.851562 4.65625 -4.867188 4.75 -4.890625 C 4.90625 -4.921875 5.019531 -4.992188 5.09375 -5.109375 C 5.226562 -5.328125 5.34375 -5.4375 5.4375 -5.4375 C 5.539062 -5.4375 5.59375 -5.378906 5.59375 -5.265625 L 5.375 -4.390625 L 5.40625 -3.921875 C 5.40625 -3.628906 5.335938 -3.484375 5.203125 -3.484375 C 5.078125 -3.484375 5.015625 -3.5625 5.015625 -3.71875 C 5.015625 -3.875 5.003906 -3.988281 4.984375 -4.0625 C 4.972656 -4.144531 4.921875 -4.207031 4.828125 -4.25 C 4.703125 -4.320312 4.382812 -4.359375 3.875 -4.359375 C 3.363281 -4.359375 2.90625 -4.332031 2.5 -4.28125 L 2.5 -2.828125 C 2.5 -1.921875 2.519531 -1.171875 2.5625 -0.578125 C 2.894531 -0.503906 3.253906 -0.46875 3.640625 -0.46875 C 4.035156 -0.46875 4.367188 -0.476562 4.640625 -0.5 C 4.921875 -0.519531 5.160156 -0.554688 5.359375 -0.609375 C 5.765625 -0.734375 6.0625 -0.960938 6.25 -1.296875 C 6.332031 -1.441406 6.410156 -1.515625 6.484375 -1.515625 C 6.566406 -1.515625 6.609375 -1.457031 6.609375 -1.34375 C 6.609375 -1.289062 6.597656 -1.226562 6.578125 -1.15625 C 6.535156 -1.050781 6.484375 -0.890625 6.421875 -0.671875 C 6.367188 -0.460938 6.320312 -0.3125 6.28125 -0.21875 C 6.25 -0.125 6.210938 -0.0507812 6.171875 0 C 6.109375 0.0820312 5.988281 0.125 5.8125 0.125 C 5.632812 0.125 5.457031 0.117188 5.28125 0.109375 C 5.113281 0.109375 4.941406 0.109375 4.765625 0.109375 C 4.546875 0.0976562 4.210938 0.0820312 3.765625 0.0625 C 2.648438 0.0078125 1.992188 -0.0078125 1.796875 0 C 1.609375 0.0195312 1.460938 0.0351562 1.359375 0.046875 C 1.265625 0.0546875 1.171875 0.0664062 1.078125 0.078125 C 0.984375 0.0859375 0.867188 0.09375 0.734375 0.09375 Z M 0.734375 0.09375 "/></g></g></g><g fill="#000000" fill-opacity="1"><g transform="translate(529.501026, 417.263133)"><g><path d="M 0.796875 0.09375 C 0.535156 0.09375 0.40625 0.0195312 0.40625 -0.125 C 0.40625 -0.269531 0.488281 -0.34375 0.65625 -0.34375 C 0.914062 -0.34375 1.097656 -0.382812 1.203125 -0.46875 C 1.410156 -0.613281 1.535156 -0.875 1.578125 -1.25 C 1.585938 -1.332031 1.597656 -1.460938 1.609375 -1.640625 C 1.617188 -1.816406 1.628906 -2.019531 1.640625 -2.25 C 1.660156 -2.488281 1.675781 -2.75 1.6875 -3.03125 C 1.695312 -3.320312 1.707031 -3.617188 1.71875 -3.921875 C 1.738281 -4.222656 1.753906 -4.523438 1.765625 -4.828125 C 1.773438 -5.140625 1.785156 -5.429688 1.796875 -5.703125 C 1.816406 -6.390625 1.828125 -6.820312 1.828125 -7 C 1.828125 -7.1875 1.8125 -7.328125 1.78125 -7.421875 C 1.757812 -7.523438 1.722656 -7.613281 1.671875 -7.6875 C 1.578125 -7.800781 1.429688 -7.867188 1.234375 -7.890625 C 0.878906 -7.941406 0.703125 -8.019531 0.703125 -8.125 C 0.703125 -8.195312 0.726562 -8.253906 0.78125 -8.296875 C 0.832031 -8.335938 0.898438 -8.359375 0.984375 -8.359375 L 1.953125 -8.265625 L 2.484375 -8.296875 C 2.585938 -8.296875 2.671875 -8.253906 2.734375 -8.171875 C 2.796875 -8.085938 2.867188 -7.960938 2.953125 -7.796875 L 5.9375 -1.609375 C 6.007812 -1.773438 6.101562 -1.988281 6.21875 -2.25 C 6.332031 -2.507812 6.457031 -2.800781 6.59375 -3.125 C 6.738281 -3.445312 6.890625 -3.785156 7.046875 -4.140625 C 7.203125 -4.492188 7.351562 -4.847656 7.5 -5.203125 C 7.65625 -5.554688 7.800781 -5.894531 7.9375 -6.21875 C 8.082031 -6.550781 8.207031 -6.84375 8.3125 -7.09375 C 8.414062 -7.34375 8.503906 -7.546875 8.578125 -7.703125 C 8.648438 -7.867188 8.695312 -7.984375 8.71875 -8.046875 C 8.75 -8.117188 8.800781 -8.179688 8.875 -8.234375 C 8.957031 -8.296875 9.050781 -8.328125 9.15625 -8.328125 L 9.734375 -8.296875 L 10.46875 -8.359375 C 10.78125 -8.359375 10.9375 -8.28125 10.9375 -8.125 C 10.9375 -8.050781 10.867188 -8 10.734375 -7.96875 C 10.597656 -7.945312 10.484375 -7.925781 10.390625 -7.90625 C 10.296875 -7.882812 10.207031 -7.851562 10.125 -7.8125 C 9.9375 -7.707031 9.84375 -7.539062 9.84375 -7.3125 L 10.15625 -1.265625 C 10.1875 -0.734375 10.382812 -0.4375 10.75 -0.375 C 10.851562 -0.351562 10.953125 -0.34375 11.046875 -0.34375 C 11.222656 -0.34375 11.3125 -0.269531 11.3125 -0.125 C 11.3125 0.0195312 11.1875 0.09375 10.9375 0.09375 C 10.832031 0.09375 10.738281 0.0859375 10.65625 0.078125 C 10.582031 0.0664062 10.507812 0.0546875 10.4375 0.046875 C 10.21875 0.015625 10.019531 0 9.84375 0 L 8.53125 0.09375 C 8.257812 0.09375 8.125 0.015625 8.125 -0.140625 C 8.125 -0.265625 8.21875 -0.328125 8.40625 -0.328125 C 8.601562 -0.328125 8.742188 -0.34375 8.828125 -0.375 C 8.921875 -0.40625 8.988281 -0.453125 9.03125 -0.515625 C 9.09375 -0.617188 9.125 -0.851562 9.125 -1.21875 L 9.125 -1.796875 C 9.125 -2.078125 9.101562 -2.644531 9.0625 -3.5 C 9.019531 -4.351562 8.988281 -4.960938 8.96875 -5.328125 C 8.9375 -6.097656 8.90625 -6.679688 8.875 -7.078125 L 5.96875 -0.40625 C 5.851562 -0.15625 5.753906 -0.03125 5.671875 -0.03125 C 5.609375 -0.03125 5.554688 -0.0625 5.515625 -0.125 C 5.484375 -0.1875 5.4375 -0.28125 5.375 -0.40625 L 2.390625 -6.5625 C 2.234375 -4.46875 2.15625 -2.550781 2.15625 -0.8125 C 2.15625 -0.476562 2.425781 -0.3125 2.96875 -0.3125 C 3.113281 -0.3125 3.1875 -0.253906 3.1875 -0.140625 C 3.1875 0.015625 3.054688 0.09375 2.796875 0.09375 L 1.796875 0 C 1.585938 0 1.390625 0.015625 1.203125 0.046875 C 1.015625 0.078125 0.878906 0.09375 0.796875 0.09375 Z M 9.0625 -7.515625 Z M 9.0625 -7.515625 "/></g></g></g><g fill="#000000" fill-opacity="1"><g transform="translate(551.332258, 417.263133)"><g><path d="M 0.734375 0.09375 C 0.515625 0.09375 0.40625 0.015625 0.40625 -0.140625 C 0.40625 -0.253906 0.476562 -0.3125 0.625 -0.3125 L 0.921875 -0.28125 C 1.148438 -0.28125 1.304688 -0.378906 1.390625 -0.578125 C 1.484375 -0.804688 1.53125 -1.257812 1.53125 -1.9375 L 1.53125 -6.3125 C 1.53125 -6.976562 1.5 -7.398438 1.4375 -7.578125 C 1.375 -7.753906 1.300781 -7.863281 1.21875 -7.90625 C 1.144531 -7.957031 1.046875 -7.984375 0.921875 -7.984375 L 0.625 -7.953125 C 0.476562 -7.953125 0.40625 -8.007812 0.40625 -8.125 C 0.40625 -8.28125 0.515625 -8.359375 0.734375 -8.359375 C 0.953125 -8.359375 1.128906 -8.351562 1.265625 -8.34375 C 1.410156 -8.332031 1.554688 -8.320312 1.703125 -8.3125 C 2.085938 -8.28125 2.390625 -8.265625 2.609375 -8.265625 C 2.828125 -8.265625 3.054688 -8.269531 3.296875 -8.28125 C 3.546875 -8.289062 3.820312 -8.300781 4.125 -8.3125 C 4.925781 -8.34375 5.484375 -8.359375 5.796875 -8.359375 C 6.109375 -8.359375 6.28125 -8.335938 6.3125 -8.296875 C 6.351562 -8.265625 6.375 -8.21875 6.375 -8.15625 C 6.375 -8.09375 6.367188 -8.03125 6.359375 -7.96875 C 6.359375 -7.914062 6.359375 -7.851562 6.359375 -7.78125 C 6.347656 -7.6875 6.332031 -7.546875 6.3125 -7.359375 C 6.289062 -7.171875 6.265625 -7.046875 6.234375 -6.984375 C 6.210938 -6.921875 6.175781 -6.890625 6.125 -6.890625 C 6.070312 -6.890625 6.035156 -6.898438 6.015625 -6.921875 C 5.992188 -6.953125 5.960938 -7.015625 5.921875 -7.109375 C 5.890625 -7.203125 5.828125 -7.289062 5.734375 -7.375 C 5.648438 -7.46875 5.515625 -7.546875 5.328125 -7.609375 C 4.953125 -7.722656 4.265625 -7.78125 3.265625 -7.78125 L 2.71875 -7.78125 C 2.625 -7.78125 2.5625 -7.765625 2.53125 -7.734375 C 2.507812 -7.703125 2.5 -7.632812 2.5 -7.53125 L 2.5 -4.9375 C 2.988281 -4.875 3.394531 -4.84375 3.71875 -4.84375 C 4.039062 -4.84375 4.269531 -4.84375 4.40625 -4.84375 C 4.539062 -4.851562 4.65625 -4.867188 4.75 -4.890625 C 4.90625 -4.921875 5.019531 -4.992188 5.09375 -5.109375 C 5.226562 -5.328125 5.34375 -5.4375 5.4375 -5.4375 C 5.539062 -5.4375 5.59375 -5.378906 5.59375 -5.265625 L 5.375 -4.390625 L 5.40625 -3.921875 C 5.40625 -3.628906 5.335938 -3.484375 5.203125 -3.484375 C 5.078125 -3.484375 5.015625 -3.5625 5.015625 -3.71875 C 5.015625 -3.875 5.003906 -3.988281 4.984375 -4.0625 C 4.972656 -4.144531 4.921875 -4.207031 4.828125 -4.25 C 4.703125 -4.320312 4.382812 -4.359375 3.875 -4.359375 C 3.363281 -4.359375 2.90625 -4.332031 2.5 -4.28125 L 2.5 -2.828125 C 2.5 -1.921875 2.519531 -1.171875 2.5625 -0.578125 C 2.894531 -0.503906 3.253906 -0.46875 3.640625 -0.46875 C 4.035156 -0.46875 4.367188 -0.476562 4.640625 -0.5 C 4.921875 -0.519531 5.160156 -0.554688 5.359375 -0.609375 C 5.765625 -0.734375 6.0625 -0.960938 6.25 -1.296875 C 6.332031 -1.441406 6.410156 -1.515625 6.484375 -1.515625 C 6.566406 -1.515625 6.609375 -1.457031 6.609375 -1.34375 C 6.609375 -1.289062 6.597656 -1.226562 6.578125 -1.15625 C 6.535156 -1.050781 6.484375 -0.890625 6.421875 -0.671875 C 6.367188 -0.460938 6.320312 -0.3125 6.28125 -0.21875 C 6.25 -0.125 6.210938 -0.0507812 6.171875 0 C 6.109375 0.0820312 5.988281 0.125 5.8125 0.125 C 5.632812 0.125 5.457031 0.117188 5.28125 0.109375 C 5.113281 0.109375 4.941406 0.109375 4.765625 0.109375 C 4.546875 0.0976562 4.210938 0.0820312 3.765625 0.0625 C 2.648438 0.0078125 1.992188 -0.0078125 1.796875 0 C 1.609375 0.0195312 1.460938 0.0351562 1.359375 0.046875 C 1.265625 0.0546875 1.171875 0.0664062 1.078125 0.078125 C 0.984375 0.0859375 0.867188 0.09375 0.734375 0.09375 Z M 0.734375 0.09375 "/></g></g></g><g fill="#000000" fill-opacity="1"><g transform="translate(568.550631, 417.263133)"><g><path d="M 0.84375 0.09375 C 0.570312 0.09375 0.4375 0.015625 0.4375 -0.140625 C 0.4375 -0.253906 0.507812 -0.3125 0.65625 -0.3125 L 0.96875 -0.28125 C 1.207031 -0.28125 1.367188 -0.421875 1.453125 -0.703125 C 1.523438 -0.929688 1.5625 -1.347656 1.5625 -1.953125 L 1.5625 -6.296875 C 1.5625 -6.898438 1.53125 -7.289062 1.46875 -7.46875 C 1.414062 -7.65625 1.347656 -7.78125 1.265625 -7.84375 C 1.191406 -7.914062 1.09375 -7.953125 0.96875 -7.953125 L 0.65625 -7.921875 C 0.507812 -7.921875 0.4375 -7.984375 0.4375 -8.109375 C 0.4375 -8.273438 0.570312 -8.359375 0.84375 -8.359375 L 1.640625 -8.265625 C 1.816406 -8.265625 1.972656 -8.273438 2.109375 -8.296875 L 7.78125 -1.6875 L 7.78125 -6.3125 C 7.78125 -6.90625 7.75 -7.296875 7.6875 -7.484375 C 7.625 -7.679688 7.550781 -7.8125 7.46875 -7.875 C 7.382812 -7.945312 7.28125 -7.984375 7.15625 -7.984375 L 6.84375 -7.953125 C 6.695312 -7.953125 6.625 -8.007812 6.625 -8.125 C 6.625 -8.28125 6.757812 -8.359375 7.03125 -8.359375 C 7.132812 -8.359375 7.269531 -8.34375 7.4375 -8.3125 C 7.65625 -8.28125 7.851562 -8.265625 8.03125 -8.265625 C 8.207031 -8.265625 8.378906 -8.28125 8.546875 -8.3125 C 8.710938 -8.34375 8.910156 -8.359375 9.140625 -8.359375 C 9.367188 -8.359375 9.484375 -8.28125 9.484375 -8.125 C 9.484375 -8.007812 9.410156 -7.953125 9.265625 -7.953125 L 8.953125 -7.984375 C 8.703125 -7.984375 8.535156 -7.84375 8.453125 -7.5625 C 8.390625 -7.34375 8.359375 -6.925781 8.359375 -6.3125 L 8.359375 -0.078125 C 8.359375 0.0546875 8.34375 0.144531 8.3125 0.1875 C 8.289062 0.238281 8.253906 0.265625 8.203125 0.265625 C 8.128906 0.265625 8.007812 0.175781 7.84375 0 L 2.15625 -6.578125 L 2.15625 -1.953125 C 2.15625 -1.328125 2.179688 -0.925781 2.234375 -0.75 C 2.296875 -0.570312 2.367188 -0.445312 2.453125 -0.375 C 2.535156 -0.3125 2.640625 -0.28125 2.765625 -0.28125 L 3.0625 -0.3125 C 3.207031 -0.3125 3.28125 -0.253906 3.28125 -0.140625 C 3.28125 0.015625 3.160156 0.09375 2.921875 0.09375 C 2.691406 0.09375 2.484375 0.078125 2.296875 0.046875 C 2.117188 0.015625 1.941406 0 1.765625 0 C 1.597656 0 1.429688 0.015625 1.265625 0.046875 C 1.097656 0.078125 0.957031 0.09375 0.84375 0.09375 Z M 0.84375 0.09375 "/></g></g></g><g fill="#000000" fill-opacity="1"><g transform="translate(588.248094, 417.263133)"><g><path d="M 2.53125 0.09375 C 2.257812 0.09375 2.125 0.015625 2.125 -0.140625 C 2.125 -0.253906 2.195312 -0.3125 2.34375 -0.3125 L 2.65625 -0.28125 C 2.894531 -0.28125 3.054688 -0.421875 3.140625 -0.703125 C 3.210938 -0.929688 3.25 -1.347656 3.25 -1.953125 L 3.25 -7.71875 L 3.09375 -7.71875 C 2.375 -7.71875 1.800781 -7.644531 1.375 -7.5 C 1.070312 -7.382812 0.867188 -7.203125 0.765625 -6.953125 C 0.679688 -6.753906 0.597656 -6.65625 0.515625 -6.65625 C 0.398438 -6.65625 0.34375 -6.726562 0.34375 -6.875 C 0.34375 -6.914062 0.347656 -6.960938 0.359375 -7.015625 C 0.378906 -7.066406 0.40625 -7.128906 0.4375 -7.203125 C 0.5 -7.398438 0.535156 -7.601562 0.546875 -7.8125 C 0.554688 -8.03125 0.578125 -8.175781 0.609375 -8.25 C 0.648438 -8.320312 0.703125 -8.359375 0.765625 -8.359375 C 0.828125 -8.359375 0.878906 -8.351562 0.921875 -8.34375 C 0.972656 -8.332031 1.046875 -8.320312 1.140625 -8.3125 C 1.390625 -8.28125 1.703125 -8.265625 2.078125 -8.265625 L 5.984375 -8.265625 C 6.285156 -8.265625 6.503906 -8.28125 6.640625 -8.3125 C 6.785156 -8.34375 6.890625 -8.359375 6.953125 -8.359375 C 7.085938 -8.359375 7.15625 -8.296875 7.15625 -8.171875 C 7.15625 -8.097656 7.140625 -8.019531 7.109375 -7.9375 C 7.046875 -7.726562 7.003906 -7.550781 6.984375 -7.40625 C 6.972656 -7.257812 6.957031 -7.140625 6.9375 -7.046875 C 6.925781 -6.960938 6.910156 -6.894531 6.890625 -6.84375 C 6.859375 -6.75 6.804688 -6.703125 6.734375 -6.703125 C 6.671875 -6.703125 6.628906 -6.722656 6.609375 -6.765625 C 6.585938 -6.816406 6.566406 -6.910156 6.546875 -7.046875 C 6.523438 -7.179688 6.488281 -7.289062 6.4375 -7.375 C 6.394531 -7.46875 6.332031 -7.535156 6.25 -7.578125 C 6.101562 -7.671875 5.867188 -7.71875 5.546875 -7.71875 L 4.21875 -7.71875 L 4.21875 -1.953125 C 4.21875 -1.328125 4.242188 -0.925781 4.296875 -0.75 C 4.359375 -0.570312 4.425781 -0.445312 4.5 -0.375 C 4.582031 -0.3125 4.691406 -0.28125 4.828125 -0.28125 L 5.125 -0.3125 C 5.269531 -0.3125 5.34375 -0.253906 5.34375 -0.140625 C 5.34375 0.015625 5.210938 0.09375 4.953125 0.09375 C 4.816406 0.09375 4.671875 0.0820312 4.515625 0.0625 C 4.023438 -0.0195312 3.601562 -0.0351562 3.25 0.015625 C 2.894531 0.0664062 2.65625 0.09375 2.53125 0.09375 Z M 2.53125 0.09375 "/></g></g></g><g fill="#000000" fill-opacity="1"><g transform="translate(382.024907, 536.976015)"><g><path d="M 10.640625 -0.484375 L 10.640625 0 L 1.515625 0 L 1.515625 -16.375 L 10.59375 -16.375 L 10.59375 -15.875 L 2.015625 -15.875 L 2.015625 -8.4375 L 10.40625 -8.4375 L 10.40625 -7.921875 L 2.015625 -7.921875 L 2.015625 -0.484375 Z M 10.640625 -0.484375 "/></g></g></g><g fill="#000000" fill-opacity="1"><g transform="translate(393.744447, 536.976015)"><g><path d="M 11.65625 -12.859375 C 11.59375 -13.171875 11.484375 -13.484375 11.328125 -13.796875 C 11.179688 -14.109375 11 -14.382812 10.78125 -14.625 C 10.3125 -15.101562 9.710938 -15.460938 8.984375 -15.703125 C 8.265625 -15.941406 7.5625 -16.0625 6.875 -16.0625 C 6.113281 -16.0625 5.332031 -15.914062 4.53125 -15.625 C 3.726562 -15.34375 3.078125 -14.882812 2.578125 -14.25 C 2.328125 -13.945312 2.144531 -13.613281 2.03125 -13.25 C 1.925781 -12.894531 1.875 -12.53125 1.875 -12.15625 C 1.875 -11.394531 2.023438 -10.785156 2.328125 -10.328125 C 2.628906 -9.867188 3.035156 -9.515625 3.546875 -9.265625 C 4.066406 -9.023438 4.632812 -8.847656 5.25 -8.734375 C 5.863281 -8.617188 6.476562 -8.53125 7.09375 -8.46875 C 7.675781 -8.40625 8.257812 -8.328125 8.84375 -8.234375 C 9.4375 -8.140625 9.984375 -7.988281 10.484375 -7.78125 C 10.992188 -7.570312 11.425781 -7.28125 11.78125 -6.90625 C 12.144531 -6.53125 12.394531 -6.03125 12.53125 -5.40625 C 12.613281 -5.039062 12.65625 -4.703125 12.65625 -4.390625 C 12.65625 -3.679688 12.488281 -3.039062 12.15625 -2.46875 C 11.820312 -1.894531 11.375 -1.410156 10.8125 -1.015625 C 10.25 -0.628906 9.625 -0.335938 8.9375 -0.140625 C 8.25 0.0546875 7.554688 0.15625 6.859375 0.15625 C 6.265625 0.15625 5.65625 0.0703125 5.03125 -0.09375 C 4.40625 -0.257812 3.816406 -0.515625 3.265625 -0.859375 C 2.722656 -1.203125 2.269531 -1.625 1.90625 -2.125 C 1.550781 -2.625 1.335938 -3.210938 1.265625 -3.890625 L 1.234375 -4.09375 L 1.75 -4.140625 L 1.78125 -3.921875 C 1.882812 -3.148438 2.207031 -2.492188 2.75 -1.953125 C 3.289062 -1.410156 3.929688 -1.003906 4.671875 -0.734375 C 5.421875 -0.460938 6.15625 -0.328125 6.875 -0.328125 C 7.71875 -0.328125 8.539062 -0.484375 9.34375 -0.796875 C 10.144531 -1.117188 10.804688 -1.582031 11.328125 -2.1875 C 11.847656 -2.800781 12.109375 -3.546875 12.109375 -4.421875 C 12.109375 -4.546875 12.097656 -4.679688 12.078125 -4.828125 C 12.066406 -4.972656 12.046875 -5.125 12.015625 -5.28125 C 11.859375 -6 11.519531 -6.535156 11 -6.890625 C 10.476562 -7.242188 9.863281 -7.492188 9.15625 -7.640625 C 8.445312 -7.785156 7.726562 -7.894531 7 -7.96875 C 6.375 -8.03125 5.742188 -8.113281 5.109375 -8.21875 C 4.472656 -8.332031 3.882812 -8.519531 3.34375 -8.78125 C 2.8125 -9.039062 2.367188 -9.40625 2.015625 -9.875 C 1.671875 -10.351562 1.46875 -10.988281 1.40625 -11.78125 C 1.375 -12.238281 1.421875 -12.71875 1.546875 -13.21875 C 1.679688 -13.71875 1.898438 -14.160156 2.203125 -14.546875 C 2.710938 -15.222656 3.394531 -15.726562 4.25 -16.0625 C 5.113281 -16.394531 6.003906 -16.5625 6.921875 -16.5625 C 7.734375 -16.5625 8.507812 -16.425781 9.25 -16.15625 C 9.988281 -15.894531 10.613281 -15.503906 11.125 -14.984375 C 11.644531 -14.460938 11.984375 -13.796875 12.140625 -12.984375 L 12.1875 -12.703125 L 11.6875 -12.625 Z M 11.65625 -12.859375 "/></g></g></g><g fill="#000000" fill-opacity="1"><g transform="translate(407.52252, 536.976015)"><g><path d="M 6.25 -15.859375 L 0.625 -15.859375 L 0.625 -16.375 L 12.34375 -16.375 L 12.34375 -15.859375 L 6.734375 -15.859375 L 6.734375 0 L 6.25 0 Z M 6.25 -15.859375 "/></g></g></g><g fill="#000000" fill-opacity="1"><g transform="translate(420.645601, 536.976015)"><g><path d="M 1.3125 -1.03125 C 1.445312 -1.03125 1.566406 -0.972656 1.671875 -0.859375 C 1.785156 -0.753906 1.84375 -0.625 1.84375 -0.46875 C 1.84375 -0.34375 1.785156 -0.222656 1.671875 -0.109375 C 1.566406 -0.00390625 1.445312 0.046875 1.3125 0.046875 C 1.164062 0.046875 1.035156 0 0.921875 -0.09375 C 0.804688 -0.1875 0.75 -0.3125 0.75 -0.46875 C 0.75 -0.65625 0.804688 -0.796875 0.921875 -0.890625 C 1.035156 -0.984375 1.164062 -1.03125 1.3125 -1.03125 Z M 1.3125 -1.03125 "/></g></g></g><g fill="#000000" fill-opacity="1"><g transform="translate(423.218753, 536.976015)"><g/></g></g><g fill="#000000" fill-opacity="1"><g transform="translate(429.558072, 536.976015)"><g><path d="M 0.890625 -11.296875 C 0.890625 -12.210938 1.09375 -13.054688 1.5 -13.828125 C 1.914062 -14.609375 2.53125 -15.226562 3.34375 -15.6875 C 4.164062 -16.144531 5.1875 -16.375 6.40625 -16.375 C 7.570312 -16.375 8.5625 -16.15625 9.375 -15.71875 C 10.1875 -15.28125 10.804688 -14.707031 11.234375 -14 C 11.660156 -13.289062 11.875 -12.515625 11.875 -11.671875 C 11.875 -10.765625 11.660156 -9.921875 11.234375 -9.140625 C 10.804688 -8.359375 10.265625 -7.695312 9.609375 -7.15625 L 1.78125 -0.484375 L 11.921875 -0.484375 L 11.921875 0 L 0.9375 0 L 0.9375 -0.4375 L 9.234375 -7.515625 C 9.816406 -8.023438 10.316406 -8.628906 10.734375 -9.328125 C 11.160156 -10.035156 11.375 -10.796875 11.375 -11.609375 C 11.375 -12.347656 11.179688 -13.039062 10.796875 -13.6875 C 10.410156 -14.34375 9.847656 -14.867188 9.109375 -15.265625 C 8.367188 -15.671875 7.46875 -15.875 6.40625 -15.875 C 5.300781 -15.875 4.375 -15.660156 3.625 -15.234375 C 2.875 -14.804688 2.316406 -14.242188 1.953125 -13.546875 C 1.585938 -12.859375 1.40625 -12.109375 1.40625 -11.296875 Z M 0.890625 -11.296875 "/></g></g></g><g fill="#000000" fill-opacity="1"><g transform="translate(442.400452, 536.976015)"><g><path d="M 6.875 0.203125 C 5.875 0.203125 4.992188 -0.0234375 4.234375 -0.484375 C 3.484375 -0.953125 2.859375 -1.582031 2.359375 -2.375 C 1.859375 -3.175781 1.484375 -4.078125 1.234375 -5.078125 C 0.984375 -6.078125 0.859375 -7.113281 0.859375 -8.1875 C 0.859375 -9.257812 0.984375 -10.300781 1.234375 -11.3125 C 1.484375 -12.332031 1.859375 -13.242188 2.359375 -14.046875 C 2.859375 -14.847656 3.484375 -15.484375 4.234375 -15.953125 C 4.992188 -16.429688 5.875 -16.671875 6.875 -16.671875 C 7.875 -16.671875 8.75 -16.429688 9.5 -15.953125 C 10.25 -15.484375 10.875 -14.847656 11.375 -14.046875 C 11.882812 -13.242188 12.265625 -12.332031 12.515625 -11.3125 C 12.765625 -10.300781 12.890625 -9.257812 12.890625 -8.1875 C 12.890625 -7.113281 12.765625 -6.078125 12.515625 -5.078125 C 12.265625 -4.078125 11.882812 -3.175781 11.375 -2.375 C 10.875 -1.582031 10.25 -0.953125 9.5 -0.484375 C 8.75 -0.0234375 7.875 0.203125 6.875 0.203125 Z M 6.875 -16.15625 C 5.957031 -16.15625 5.148438 -15.929688 4.453125 -15.484375 C 3.765625 -15.046875 3.1875 -14.445312 2.71875 -13.6875 C 2.257812 -12.9375 1.914062 -12.082031 1.6875 -11.125 C 1.46875 -10.175781 1.359375 -9.195312 1.359375 -8.1875 C 1.359375 -7.1875 1.46875 -6.210938 1.6875 -5.265625 C 1.914062 -4.328125 2.257812 -3.484375 2.71875 -2.734375 C 3.1875 -1.984375 3.765625 -1.390625 4.453125 -0.953125 C 5.148438 -0.515625 5.957031 -0.296875 6.875 -0.296875 C 7.789062 -0.296875 8.597656 -0.515625 9.296875 -0.953125 C 9.992188 -1.390625 10.570312 -1.984375 11.03125 -2.734375 C 11.488281 -3.484375 11.832031 -4.328125 12.0625 -5.265625 C 12.300781 -6.210938 12.421875 -7.1875 12.421875 -8.1875 C 12.421875 -9.164062 12.300781 -10.125 12.0625 -11.0625 C 11.832031 -12.007812 11.488281 -12.867188 11.03125 -13.640625 C 10.570312 -14.421875 9.992188 -15.035156 9.296875 -15.484375 C 8.597656 -15.929688 7.789062 -16.15625 6.875 -16.15625 Z M 6.875 -16.15625 "/></g></g></g><g fill="#000000" fill-opacity="1"><g transform="translate(456.248701, 536.976015)"><g><path d="M 0.890625 -11.296875 C 0.890625 -12.210938 1.09375 -13.054688 1.5 -13.828125 C 1.914062 -14.609375 2.53125 -15.226562 3.34375 -15.6875 C 4.164062 -16.144531 5.1875 -16.375 6.40625 -16.375 C 7.570312 -16.375 8.5625 -16.15625 9.375 -15.71875 C 10.1875 -15.28125 10.804688 -14.707031 11.234375 -14 C 11.660156 -13.289062 11.875 -12.515625 11.875 -11.671875 C 11.875 -10.765625 11.660156 -9.921875 11.234375 -9.140625 C 10.804688 -8.359375 10.265625 -7.695312 9.609375 -7.15625 L 1.78125 -0.484375 L 11.921875 -0.484375 L 11.921875 0 L 0.9375 0 L 0.9375 -0.4375 L 9.234375 -7.515625 C 9.816406 -8.023438 10.316406 -8.628906 10.734375 -9.328125 C 11.160156 -10.035156 11.375 -10.796875 11.375 -11.609375 C 11.375 -12.347656 11.179688 -13.039062 10.796875 -13.6875 C 10.410156 -14.34375 9.847656 -14.867188 9.109375 -15.265625 C 8.367188 -15.671875 7.46875 -15.875 6.40625 -15.875 C 5.300781 -15.875 4.375 -15.660156 3.625 -15.234375 C 2.875 -14.804688 2.316406 -14.242188 1.953125 -13.546875 C 1.585938 -12.859375 1.40625 -12.109375 1.40625 -11.296875 Z M 0.890625 -11.296875 "/></g></g></g><g fill="#000000" fill-opacity="1"><g transform="translate(469.091081, 536.976015)"><g><path d="M 1.78125 -15.90625 L 1.78125 -9.5625 C 2.414062 -9.875 3.085938 -10.117188 3.796875 -10.296875 C 4.503906 -10.484375 5.242188 -10.578125 6.015625 -10.578125 C 6.460938 -10.578125 6.910156 -10.53125 7.359375 -10.4375 C 7.816406 -10.351562 8.253906 -10.226562 8.671875 -10.0625 C 9.734375 -9.625 10.53125 -8.960938 11.0625 -8.078125 C 11.601562 -7.203125 11.875 -6.265625 11.875 -5.265625 C 11.875 -4.398438 11.664062 -3.5625 11.25 -2.75 C 10.832031 -1.945312 10.203125 -1.285156 9.359375 -0.765625 C 8.523438 -0.253906 7.476562 0 6.21875 0 C 4.769531 0 3.609375 -0.34375 2.734375 -1.03125 C 1.859375 -1.71875 1.242188 -2.550781 0.890625 -3.53125 L 1.359375 -3.703125 C 1.671875 -2.796875 2.222656 -2.035156 3.015625 -1.421875 C 3.804688 -0.816406 4.875 -0.515625 6.21875 -0.515625 C 7.375 -0.515625 8.328125 -0.742188 9.078125 -1.203125 C 9.835938 -1.660156 10.410156 -2.253906 10.796875 -2.984375 C 11.179688 -3.722656 11.375 -4.484375 11.375 -5.265625 C 11.375 -6.117188 11.132812 -6.953125 10.65625 -7.765625 C 10.175781 -8.578125 9.484375 -9.175781 8.578125 -9.5625 C 7.753906 -9.90625 6.921875 -10.078125 6.078125 -10.078125 C 5.328125 -10.078125 4.59375 -9.976562 3.875 -9.78125 C 3.164062 -9.59375 2.46875 -9.34375 1.78125 -9.03125 L 1.28125 -9.265625 L 1.28125 -16.375 L 10.8125 -16.375 L 10.8125 -15.90625 Z M 1.78125 -15.90625 "/></g></g></g></svg>